<mxfile host="app.diagrams.net" agent="Mozilla/5.0 (Windows NT 10.0; Win64; x64) AppleWebKit/537.36 (KHTML, like Gecko) Chrome/131.0.0.0 Safari/537.36 Edg/131.0.0.0" version="25.0.1">
  <diagram name="Page-1" id="5kGCat3fwyy2t_XIB7Cw">
    <mxGraphModel dx="1921" dy="438" grid="1" gridSize="10" guides="1" tooltips="1" connect="1" arrows="1" fold="1" page="1" pageScale="1" pageWidth="850" pageHeight="1100" math="0" shadow="0">
      <root>
        <mxCell id="0" />
        <mxCell id="1" parent="0" />
        <mxCell id="D19XEjsnY9w7vPdhSzOD-12" value="" style="rounded=0;whiteSpace=wrap;html=1;" vertex="1" parent="1">
          <mxGeometry x="60" y="70" width="450" height="110" as="geometry" />
        </mxCell>
        <mxCell id="D19XEjsnY9w7vPdhSzOD-5" value="" style="rounded=0;whiteSpace=wrap;html=1;" vertex="1" parent="1">
          <mxGeometry x="100" y="200" width="520" height="270" as="geometry" />
        </mxCell>
        <mxCell id="D19XEjsnY9w7vPdhSzOD-1" value="&lt;font style=&quot;font-size: 14px;&quot;&gt;Online Food Ordering System&lt;/font&gt;" style="text;html=1;align=center;verticalAlign=middle;whiteSpace=wrap;rounded=0;" vertex="1" parent="1">
          <mxGeometry x="40" y="40" width="340" height="30" as="geometry" />
        </mxCell>
        <mxCell id="D19XEjsnY9w7vPdhSzOD-6" style="edgeStyle=orthogonalEdgeStyle;rounded=0;orthogonalLoop=1;jettySize=auto;html=1;" edge="1" parent="1" source="D19XEjsnY9w7vPdhSzOD-2" target="D19XEjsnY9w7vPdhSzOD-3">
          <mxGeometry relative="1" as="geometry" />
        </mxCell>
        <mxCell id="D19XEjsnY9w7vPdhSzOD-17" style="edgeStyle=orthogonalEdgeStyle;rounded=0;orthogonalLoop=1;jettySize=auto;html=1;entryX=0.5;entryY=0;entryDx=0;entryDy=0;" edge="1" parent="1" source="D19XEjsnY9w7vPdhSzOD-2" target="D19XEjsnY9w7vPdhSzOD-4">
          <mxGeometry relative="1" as="geometry" />
        </mxCell>
        <mxCell id="D19XEjsnY9w7vPdhSzOD-2" value="&lt;h2&gt;&lt;font face=&quot;Georgia&quot;&gt;Customer&lt;/font&gt;&lt;/h2&gt;" style="rounded=0;whiteSpace=wrap;html=1;" vertex="1" parent="1">
          <mxGeometry x="120" y="90" width="120" height="60" as="geometry" />
        </mxCell>
        <mxCell id="D19XEjsnY9w7vPdhSzOD-9" style="edgeStyle=orthogonalEdgeStyle;rounded=0;orthogonalLoop=1;jettySize=auto;html=1;" edge="1" parent="1" source="D19XEjsnY9w7vPdhSzOD-3" target="D19XEjsnY9w7vPdhSzOD-8">
          <mxGeometry relative="1" as="geometry" />
        </mxCell>
        <mxCell id="D19XEjsnY9w7vPdhSzOD-16" style="edgeStyle=orthogonalEdgeStyle;rounded=0;orthogonalLoop=1;jettySize=auto;html=1;" edge="1" parent="1" source="D19XEjsnY9w7vPdhSzOD-3" target="D19XEjsnY9w7vPdhSzOD-15">
          <mxGeometry relative="1" as="geometry" />
        </mxCell>
        <mxCell id="D19XEjsnY9w7vPdhSzOD-3" value="&lt;h2&gt;Orders&lt;/h2&gt;" style="rounded=0;whiteSpace=wrap;html=1;" vertex="1" parent="1">
          <mxGeometry x="120" y="240" width="120" height="60" as="geometry" />
        </mxCell>
        <mxCell id="D19XEjsnY9w7vPdhSzOD-4" value="&lt;h2&gt;Menuitem&lt;/h2&gt;" style="rounded=0;whiteSpace=wrap;html=1;" vertex="1" parent="1">
          <mxGeometry x="-90" y="250" width="120" height="70" as="geometry" />
        </mxCell>
        <mxCell id="D19XEjsnY9w7vPdhSzOD-8" value="&lt;h2&gt;Payments&lt;/h2&gt;" style="rounded=0;whiteSpace=wrap;html=1;" vertex="1" parent="1">
          <mxGeometry x="410" y="240" width="120" height="60" as="geometry" />
        </mxCell>
        <mxCell id="D19XEjsnY9w7vPdhSzOD-11" style="edgeStyle=orthogonalEdgeStyle;rounded=0;orthogonalLoop=1;jettySize=auto;html=1;" edge="1" parent="1" source="D19XEjsnY9w7vPdhSzOD-10" target="D19XEjsnY9w7vPdhSzOD-2">
          <mxGeometry relative="1" as="geometry" />
        </mxCell>
        <mxCell id="D19XEjsnY9w7vPdhSzOD-10" value="Delivery Address" style="rounded=0;whiteSpace=wrap;html=1;" vertex="1" parent="1">
          <mxGeometry x="270" y="90" width="120" height="60" as="geometry" />
        </mxCell>
        <mxCell id="D19XEjsnY9w7vPdhSzOD-15" value="OrderItem" style="rounded=0;whiteSpace=wrap;html=1;" vertex="1" parent="1">
          <mxGeometry x="120" y="330" width="120" height="60" as="geometry" />
        </mxCell>
        <mxCell id="D19XEjsnY9w7vPdhSzOD-19" style="edgeStyle=orthogonalEdgeStyle;rounded=0;orthogonalLoop=1;jettySize=auto;html=1;exitX=1;exitY=0.5;exitDx=0;exitDy=0;entryX=0.041;entryY=0.398;entryDx=0;entryDy=0;entryPerimeter=0;" edge="1" parent="1" source="D19XEjsnY9w7vPdhSzOD-4" target="D19XEjsnY9w7vPdhSzOD-3">
          <mxGeometry relative="1" as="geometry" />
        </mxCell>
      </root>
    </mxGraphModel>
  </diagram>
</mxfile>
